<?xml version="1.0" encoding="UTF-8"?>
<svg xmlns="http://www.w3.org/2000/svg" width="1024" height="1024" xmlns:xlink="http://www.w3.org/1999/xlink" viewBox="0 0 1024 1024">
	<defs>
		<style>.uuid-4bc1db88-92fb-473e-85d8-58fe42243e86{fill:url(#uuid-b8714af7-c059-4f2e-92c3-24fe8a3d120d);}.uuid-4bc1db88-92fb-473e-85d8-58fe42243e86,.uuid-6b742e95-0fb4-4569-bb51-66a5d03f666a,.uuid-8aa922ed-0a83-4a6a-8730-bd530c75f971,.uuid-93a995e4-c71f-4609-ae2c-16eeb04e18e8,.uuid-baf03b8d-cbeb-45a6-9b32-ab1491404f3f,.uuid-70dbc731-c992-4e28-83e9-4e5c6bdaaea4{stroke-width:0px;}.uuid-6b742e95-0fb4-4569-bb51-66a5d03f666a{fill:url(#uuid-951524db-8277-4054-baa2-155f38da0c02);}.uuid-437280e5-16c1-4905-bffa-53c9695acf4a{mask:url(#uuid-4a976813-28eb-40e2-a41d-97445880dcfd);}.uuid-8aa922ed-0a83-4a6a-8730-bd530c75f971{fill:url(#uuid-08cdb1ba-f817-4fde-912e-944b2ab4a005);}.uuid-93a995e4-c71f-4609-ae2c-16eeb04e18e8{fill:#fff;}.uuid-baf03b8d-cbeb-45a6-9b32-ab1491404f3f{fill:url(#uuid-d2c1d9db-316f-4a99-9476-b44073eb0324);}.uuid-70dbc731-c992-4e28-83e9-4e5c6bdaaea4{fill:url(#uuid-fe71ff86-ca18-4c5a-90d6-46d3acb15365);}.uuid-652944b8-1679-4343-8bad-6215eefd8b9c{mask:url(#uuid-a0ba96ba-f402-4746-997c-d77be0ded95d);}</style>
		<radialGradient id="uuid-951524db-8277-4054-baa2-155f38da0c02" cx="791.06306" cy="754.00499" fx="791.06306" fy="754.00499" r="913.43729" gradientUnits="userSpaceOnUse">
			<stop offset="0" stop-color="#a857de"/>
			<stop offset=".5155" stop-color="#852fbf"/>
		</radialGradient>
		<linearGradient id="uuid-d2c1d9db-316f-4a99-9476-b44073eb0324" x1="0" y1="512" x2="512" y2="512" gradientUnits="userSpaceOnUse">
			<stop offset=".72165" stop-color="#fff"/>
			<stop offset=".99962" stop-color="#333"/>
		</linearGradient>
		<linearGradient id="uuid-b8714af7-c059-4f2e-92c3-24fe8a3d120d" x1="511.97435" y1="0" x2="511.97435" y2="1023.91483" gradientUnits="userSpaceOnUse">
			<stop offset=".00036" stop-color="#6c2899" stop-opacity="0"/>
			<stop offset=".08836" stop-color="#6c2899" stop-opacity=".02726"/>
			<stop offset=".17956" stop-color="#6c2899" stop-opacity=".10857"/>
			<stop offset=".27225" stop-color="#6c2899" stop-opacity=".2441"/>
			<stop offset=".36596" stop-color="#6c2899" stop-opacity=".43402"/>
			<stop offset=".45955" stop-color="#6c2899" stop-opacity=".6759"/>
			<stop offset=".50116" stop-color="#6c2899" stop-opacity=".8"/>
			<stop offset=".62627" stop-color="#6c2899" stop-opacity=".77275"/>
			<stop offset=".75586" stop-color="#6c2899" stop-opacity=".69151"/>
			<stop offset=".88706" stop-color="#6c2899" stop-opacity=".55676"/>
			<stop offset=".99962" stop-color="#6c2899" stop-opacity=".4"/>
		</linearGradient>
		<mask id="uuid-a0ba96ba-f402-4746-997c-d77be0ded95d" x="0" y="0" width="512" height="1024" maskUnits="userSpaceOnUse">
			<rect class="uuid-baf03b8d-cbeb-45a6-9b32-ab1491404f3f" x="0" width="512" height="1024"/>
		</mask>
		<linearGradient id="uuid-fe71ff86-ca18-4c5a-90d6-46d3acb15365" x1="541.7025" y1="17.14875" x2="-29.7025" y2="1006.85125" gradientUnits="userSpaceOnUse">
			<stop offset=".00475" stop-color="#b862e3"/>
			<stop offset=".03233" stop-color="#b862e3" stop-opacity=".89501"/>
			<stop offset=".10033" stop-color="#b862e3" stop-opacity=".66034"/>
			<stop offset=".1692" stop-color="#b862e3" stop-opacity=".45812"/>
			<stop offset=".23758" stop-color="#b862e3" stop-opacity=".29293"/>
			<stop offset=".30537" stop-color="#b862e3" stop-opacity=".16466"/>
			<stop offset=".37237" stop-color="#b862e3" stop-opacity=".07322"/>
			<stop offset=".43829" stop-color="#b862e3" stop-opacity=".01837"/>
			<stop offset=".50186" stop-color="#b862e3" stop-opacity="0"/>
		</linearGradient>
		<linearGradient id="uuid-08cdb1ba-f817-4fde-912e-944b2ab4a005" x1="263.97435" y1="511.95741" x2="759.97435" y2="511.95741" gradientUnits="userSpaceOnUse">
			<stop offset="0" stop-color="gray"/>
			<stop offset=".0502" stop-color="#979797"/>
			<stop offset=".14189" stop-color="#bcbcbc"/>
			<stop offset=".23367" stop-color="#d9d9d9"/>
			<stop offset=".32445" stop-color="#eee"/>
			<stop offset=".41379" stop-color="#fafafa"/>
			<stop offset=".5" stop-color="#fff"/>
			<stop offset=".56365" stop-color="#fafafa"/>
			<stop offset=".62966" stop-color="#eee"/>
			<stop offset=".69674" stop-color="#d9d9d9"/>
			<stop offset=".76458" stop-color="#bcbcbc"/>
			<stop offset=".83306" stop-color="#979797"/>
			<stop offset=".902" stop-color="#696969"/>
			<stop offset=".97009" stop-color="#333"/>
			<stop offset="1" stop-color="#1a1a1a"/>
		</linearGradient>
		<mask id="uuid-4a976813-28eb-40e2-a41d-97445880dcfd" x="263.97435" y="0" width="496" height="1023.91483" maskUnits="userSpaceOnUse">
			<path class="uuid-8aa922ed-0a83-4a6a-8730-bd530c75f971" d="m539.02196,1011.73657l193.10059-219.84155c17.9519-20.43774,27.85181-46.71021,27.85181-73.9126V105.25464L526.40965,3.02087c-9.2019-4.02783-19.6687-4.02783-28.87061,0l-233.5647,102.23389v612.72766c0,27.20239,9.90002,53.47485,27.85181,73.9126l193.10059,219.84155c14.48796,16.49473,40.06063,15.97857,54.09521,0Z"/>
		</mask>
	</defs>
	<g id="uuid-e252cacf-bce6-4267-8809-d2a7455277e9">
		<rect class="uuid-6b742e95-0fb4-4569-bb51-66a5d03f666a" x="0" width="1024" height="1024"/>
		<g class="uuid-652944b8-1679-4343-8bad-6215eefd8b9c">
			<rect class="uuid-70dbc731-c992-4e28-83e9-4e5c6bdaaea4" x="0" width="512" height="1024"/>
		</g>
		<g class="uuid-437280e5-16c1-4905-bffa-53c9695acf4a">
			<path class="uuid-4bc1db88-92fb-473e-85d8-58fe42243e86" d="m539.02196,1011.73657l193.10059-219.84155c17.9519-20.43774,27.85181-46.71021,27.85181-73.9126V105.25464L526.40965,3.02087c-9.2019-4.02783-19.6687-4.02783-28.87061,0l-233.5647,102.23389v612.72766c0,27.20239,9.90002,53.47485,27.85181,73.9126l193.10059,219.84155c14.48796,16.49473,40.06063,15.97857,54.09521,0Z"/>
		</g>
	</g>
	<g id="uuid-27acd18f-785c-4179-aee8-8569f9cfee62">
		<path class="uuid-93a995e4-c71f-4609-ae2c-16eeb04e18e8" d="m471.52901,873.11668l-9.10213-81.45981-79.70375-29.00844-59.33243,56.54999c-.81263.77452-1.89217,1.20657-3.01477,1.20657-1.02708,0-2.02132-.36188-2.80811-1.02208l-55.22909-46.34361c-1.70349-1.42943-2.06051-3.91079-.82911-5.76249l32.2254-48.45842c7.11289-10.69589,16.60186-19.60288,27.72596-26.02547l43.54121-25.13886c38.31844,41.46406,90.51219,64.29062,146.91469,64.29062,55.58656,0,109.15406-23.42812,146.96719-64.2775l43.49246,25.12168c11.12269,6.42458,20.61056,15.33222,27.72332,26.02792l32.22549,48.45854c1.23196,1.85255.87478,4.33505-.82949,5.76513l-55.23055,46.34484c-.78495.65867-1.77688,1.01971-2.80158,1.01971-1.12488,0-2.20661-.43292-3.0209-1.20899l-59.33219-56.54757-79.70156,29.00844-9.10209,81.46162c-.24694,2.2101-2.11551,3.88151-4.33936,3.88151h-72.09721c-2.22489,0-4.09433-1.67219-4.3414-3.88332Zm-289.75276-243.24199c-2.11558,0-3.92579-1.51892-4.29321-3.60234l-12.59589-71.4251c-.3442-1.95181.83355-3.85049,2.73508-4.40928l79.04839-23.22922,14.73062-83.53188-66.3375-48.86533c-1.59505-1.17494-2.05221-3.36098-1.06166-5.07664l36.31705-62.90198c.17449-.30222.37265-.59505.62714-.83383,1.41458-1.32727,3.30641-1.56659,4.85335-.88994l75.09162,32.84616,64.9775-54.52125-19.40904-80.07026c-.46721-1.92742.58891-3.89805,2.45257-4.5763l68.1644-24.80726c.47306-.17216.9726-.26024,1.47602-.26024,1.65807,0,3.17291.93965,3.90956,2.4251l26.80699,54.05624c5.08496,10.25381,7.73075,21.5443,7.73075,32.98971v52.32489c-43.59469,9.79344-83.18406,34.46188-111.46406,69.40719-28.7,35.46375-44.50688,80.16969-44.50688,125.87969,0,20.68937,2.85469,39.53469,8.98406,59.30094l-45.32798,26.15918c-9.90652,5.71714-21.00014,9.06783-32.41516,9.7906l-60.49373,3.82116Zm660.4475,0c2.11558,0,3.92579-1.51892,4.29321-3.60234l12.59589-71.4251c.3442-1.95181-.83355-3.85049-2.73508-4.40928l-79.04839-23.22922-14.73062-83.53187,66.3375-48.86533c1.59505-1.17494,2.05221-3.36098,1.06166-5.07664l-36.31705-62.90198c-.17449-.30222-.37265-.59505-.62714-.83383-1.41458-1.32727-3.30641-1.56659-4.85335-.88994l-75.09162,32.84616-64.9775-54.52125,19.40904-80.07026c.46721-1.92742-.58891-3.89805-2.45257-4.5763l-68.1644-24.80726c-.47306-.17216-.9726-.26024-1.47602-.26024-1.65807,0-3.17291.93965-3.90956,2.4251l-26.80699,54.05624c-5.08496,10.25381-7.73075,21.5443-7.73075,32.98971v52.32489c43.59469,9.79344,83.18406,34.46188,111.46406,69.40719,28.7,35.46375,44.50688,80.16969,44.50688,125.87969,0,20.68937-2.85469,39.53469-8.98406,59.30094l45.32798,26.15918c9.90652,5.71714,21.00014,9.06783,32.41516,9.7906l60.49373,3.82116Zm-330.22375-10.55469c-49.48471,0-89.6-40.11529-89.6-89.6s40.11529-89.6,89.6-89.6,89.6,40.11529,89.6,89.6-40.11529,89.6-89.6,89.6Z"/>
	</g>
</svg>