<?xml version="1.0" encoding="UTF-8"?><svg xmlns="http://www.w3.org/2000/svg" xmlns:xlink="http://www.w3.org/1999/xlink" viewBox="0 0 64 64"><defs><style>.uuid-758b2a24-e064-43a8-a784-ce3a8a050dc3{fill:none;}.uuid-6d9ad423-9e09-41a3-8d00-f14619265335{fill:url(#uuid-e9f127bf-0da7-4c2f-aa26-6236b9482673);}.uuid-35129f02-e45b-4f9a-9e0c-b9b1e5c3bc01{fill:#fff;}.uuid-3d6a9405-ffbc-446a-95ba-0412baf9e019{fill:url(#uuid-9ed374c1-7eea-4f33-94a9-990e9bdda320);}.uuid-15ce451b-2055-4144-96d6-e7720d3b58cf{mask:url(#uuid-c2b4855d-2748-4f9c-ba09-5fde15b86db2);}.uuid-f00fbcc6-07b1-498b-904c-1f91e4a730d4{mask:url(#uuid-b7ed43da-248f-4661-949f-16eb0fe18ccf);}.uuid-536aa174-7179-4bfb-89fa-c60aee22bc8a{fill:url(#uuid-aac9901a-7da7-4a72-92c4-6b78b93acead);}.uuid-ba11bfad-21f8-4a5a-b0ed-17840cf70d7b{mask:url(#uuid-b15fd199-4b63-4497-956e-b9f6d75b48ff);}.uuid-65b181eb-2e35-4a82-b9fc-5d183563b549{fill:url(#uuid-c32c4eb3-798c-4959-9172-a07757a35ccf);}.uuid-db621974-6735-4711-9e9d-50907d778016{fill:url(#uuid-57882dff-fd45-4c35-a21a-afa750af650c);}.uuid-1fc5767f-7ede-4f37-9a10-a02da01f982d{mask:url(#uuid-7c486c73-079a-491a-8b5a-11c58251cfcb);}.uuid-f08db7be-adf0-45e5-be42-5791e7003a46{fill:url(#uuid-0055ddd9-718a-472c-8f40-093433cada97);}</style><radialGradient id="uuid-0055ddd9-718a-472c-8f40-093433cada97" cx="13.51227" cy="43.92688" fx="13.51227" fy="43.92688" r="50.32071" gradientTransform="translate(32.63428 .00196) scale(1.0825)" gradientUnits="userSpaceOnUse"><stop offset="0" stop-color="#a857de"/><stop offset=".5155" stop-color="#852fbf"/></radialGradient><linearGradient id="uuid-c32c4eb3-798c-4959-9172-a07757a35ccf" x1="32" y1=".00066" x2="32" y2="63.99934" gradientTransform="matrix(1, 0, 0, 1, 0, 0)" gradientUnits="userSpaceOnUse"><stop offset=".00036" stop-color="#6c2899" stop-opacity="0"/><stop offset=".08836" stop-color="#6c2899" stop-opacity=".02726"/><stop offset=".17956" stop-color="#6c2899" stop-opacity=".10857"/><stop offset=".27225" stop-color="#6c2899" stop-opacity=".2441"/><stop offset=".36596" stop-color="#6c2899" stop-opacity=".43402"/><stop offset=".45955" stop-color="#6c2899" stop-opacity=".6759"/><stop offset=".50116" stop-color="#6c2899" stop-opacity=".8"/><stop offset=".62627" stop-color="#6c2899" stop-opacity=".77275"/><stop offset=".75586" stop-color="#6c2899" stop-opacity=".69151"/><stop offset=".88706" stop-color="#6c2899" stop-opacity=".55676"/><stop offset=".99962" stop-color="#6c2899" stop-opacity=".4"/></linearGradient><linearGradient id="uuid-9ed374c1-7eea-4f33-94a9-990e9bdda320" x1="38.55088" y1="3.78281" x2="9.00898" y2="54.95089" gradientTransform="matrix(1, 0, 0, 1, 0, 0)" gradientUnits="userSpaceOnUse"><stop offset=".00475" stop-color="#b862e3"/><stop offset=".03233" stop-color="#b862e3" stop-opacity=".89501"/><stop offset=".10033" stop-color="#b862e3" stop-opacity=".66034"/><stop offset=".1692" stop-color="#b862e3" stop-opacity=".45812"/><stop offset=".23758" stop-color="#b862e3" stop-opacity=".29293"/><stop offset=".30537" stop-color="#b862e3" stop-opacity=".16466"/><stop offset=".37237" stop-color="#b862e3" stop-opacity=".07322"/><stop offset=".43829" stop-color="#b862e3" stop-opacity=".01837"/><stop offset=".50186" stop-color="#b862e3" stop-opacity="0"/></linearGradient><linearGradient id="uuid-e9f127bf-0da7-4c2f-aa26-6236b9482673" x1="16.5" y1="31.998" x2="47.5" y2="31.998" gradientTransform="matrix(1, 0, 0, 1, 0, 0)" gradientUnits="userSpaceOnUse"><stop offset="0" stop-color="gray"/><stop offset=".0502" stop-color="#979797"/><stop offset=".14189" stop-color="#bcbcbc"/><stop offset=".23367" stop-color="#d9d9d9"/><stop offset=".32445" stop-color="#eee"/><stop offset=".41379" stop-color="#fafafa"/><stop offset=".5" stop-color="#fff"/><stop offset=".56365" stop-color="#fafafa"/><stop offset=".62966" stop-color="#eee"/><stop offset=".69674" stop-color="#d9d9d9"/><stop offset=".76458" stop-color="#bcbcbc"/><stop offset=".83306" stop-color="#979797"/><stop offset=".902" stop-color="#696969"/><stop offset=".97009" stop-color="#333"/><stop offset="1" stop-color="#1a1a1a"/></linearGradient><mask id="uuid-c2b4855d-2748-4f9c-ba09-5fde15b86db2" x="16.5" y=".00066" width="31" height="63.99868" maskUnits="userSpaceOnUse"><path class="uuid-6d9ad423-9e09-41a3-8d00-f14619265335" d="M33.69048,63.2342l12.06879-13.7401c1.12199-1.27736,1.74074-2.91939,1.74074-4.61954V6.57907L32.90221,.18946c-.57512-.25174-1.22929-.25174-1.80441,0l-14.59779,6.38962V44.87456c0,1.70015,.61875,3.34218,1.74074,4.61954l12.06879,13.7401c.9055,1.03092,2.50379,.99866,3.38095,0Z"/></mask><linearGradient id="uuid-57882dff-fd45-4c35-a21a-afa750af650c" x1="38.61994" y1="3.82268" x2="9.14053" y2="54.88251" gradientTransform="matrix(1, 0, 0, 1, 0, 0)" gradientUnits="userSpaceOnUse"><stop offset="0" stop-color="#e63a00"/><stop offset=".03093" stop-color="#e63a00" stop-opacity=".88336"/><stop offset=".09894" stop-color="#e63a00" stop-opacity=".6517"/><stop offset=".1678" stop-color="#e63a00" stop-opacity=".45209"/><stop offset=".23618" stop-color="#e63a00" stop-opacity=".28904"/><stop offset=".30392" stop-color="#e63a00" stop-opacity=".16252"/><stop offset=".3709" stop-color="#e63a00" stop-opacity=".07227"/><stop offset=".43681" stop-color="#e63a00" stop-opacity=".01813"/><stop offset=".50036" stop-color="#e63a00" stop-opacity="0"/></linearGradient><linearGradient id="uuid-aac9901a-7da7-4a72-92c4-6b78b93acead" x1="4.25" y1="31.99999" x2="32" y2="31.99999" gradientTransform="matrix(1, 0, 0, 1, 0, 0)" gradientUnits="userSpaceOnUse"><stop offset=".72165" stop-color="#fff"/><stop offset=".99962" stop-color="#333"/></linearGradient><mask id="uuid-b7ed43da-248f-4661-949f-16eb0fe18ccf" x="4" y=".00066" width="28" height="63.99867" maskUnits="userSpaceOnUse"><g><path class="uuid-db621974-6735-4711-9e9d-50907d778016" d="M31.09779,.18946L8.44314,10.10565c-2.54731,1.11497-4.19314,3.63197-4.19314,6.41261V52.05896l26.84779,11.75157c.28757,.12587,.59488,.1888,.90221,.1888V.00066c-.30733,0-.61464,.06293-.90221,.1888Z"/><path class="uuid-536aa174-7179-4bfb-89fa-c60aee22bc8a" d="M31.09779,.18946L8.44314,10.10565c-2.54731,1.11497-4.19314,3.63197-4.19314,6.41261V52.05896l26.84779,11.75157c.28757,.12587,.59488,.1888,.90221,.1888V.00066c-.30733,0-.61464,.06293-.90221,.1888Z"/></g></mask><mask id="uuid-b15fd199-4b63-4497-956e-b9f6d75b48ff" x="4" y=".00066" width="28" height="63.99867" maskUnits="userSpaceOnUse"><g><path class="uuid-db621974-6735-4711-9e9d-50907d778016" d="M31.09779,.18946L8.44314,10.10565c-2.54731,1.11497-4.19314,3.63197-4.19314,6.41261V52.05896l26.84779,11.75157c.28757,.12587,.59488,.1888,.90221,.1888V.00066c-.30733,0-.61464,.06293-.90221,.1888Z"/><path class="uuid-536aa174-7179-4bfb-89fa-c60aee22bc8a" d="M31.09779,.18946L8.44314,10.10565c-2.54731,1.11497-4.19314,3.63197-4.19314,6.41261V52.05896l26.84779,11.75157c.28757,.12587,.59488,.1888,.90221,.1888V.00066c-.30733,0-.61464,.06293-.90221,.1888Z"/></g></mask><mask id="uuid-7c486c73-079a-491a-8b5a-11c58251cfcb" x="16.5" y=".00066" width="31" height="63.99868" maskUnits="userSpaceOnUse"><path class="uuid-6d9ad423-9e09-41a3-8d00-f14619265335" d="M33.69048,63.2342l12.06879-13.7401c1.12199-1.27736,1.74074-2.91939,1.74074-4.61954V6.57907L32.90221,.18946c-.57512-.25174-1.22929-.25174-1.80441,0l-14.59779,6.38962V44.87456c0,1.70015,.61875,3.34218,1.74074,4.61954l12.06879,13.7401c.9055,1.03092,2.50379,.99866,3.38095,0Z"/></mask></defs><g id="uuid-b36b249c-d53a-4603-8b12-de4ca3c18d23"><path class="uuid-f08db7be-adf0-45e5-be42-5791e7003a46" d="M4,16.72132V52.05835l27.09921,11.75358c.57376,.24888,1.22642,.25029,1.80018,.00141l22.71627-9.85377c2.6619-1.15467,4.38435-3.77935,4.38435-6.68089V11.94226L32.90079,.18806c-.57376-.24888-1.2283-.24842-1.80206,.00047L8.38435,10.04043c-2.6619,1.15467-4.38435,3.77935-4.38435,6.68089Z"/><g class="uuid-15ce451b-2055-4144-96d6-e7720d3b58cf"><path class="uuid-65b181eb-2e35-4a82-b9fc-5d183563b549" d="M30.30952,63.23419c.42719,.48635,1.04315,.76515,1.69048,.76515s1.26329-.2788,1.69048-.76515l12.06878-13.74009c1.12199-1.27736,1.74074-2.91939,1.74074-4.61954V6.57907L32.90221,.18946c-.57512-.25174-1.22929-.25174-1.80441,0l-14.59779,6.33241V44.87456c0,1.70015,.61875,3.34218,1.74074,4.61954l12.06878,13.74009Z"/></g><g class="uuid-f00fbcc6-07b1-498b-904c-1f91e4a730d4"><path class="uuid-3d6a9405-ffbc-446a-95ba-0412baf9e019" d="M31.09779,.18946L8.36545,10.04786c-2.65038,1.1494-4.36545,3.76258-4.36545,6.65145V52.05896l27.09779,11.75157c.28757,.12587,.59488,.1888,.90221,.1888V.00066c-.30733,0-.61464,.06293-.90221,.1888Z"/></g><path class="uuid-f08db7be-adf0-45e5-be42-5791e7003a46" d="M4,16.72132V52.05835l27.09921,11.75358c.57376,.24888,1.22642,.25029,1.80018,.00141l22.71627-9.85377c2.6619-1.15467,4.38435-3.77935,4.38435-6.68089V11.94226L32.90079,.18806c-.57376-.24888-1.2283-.24842-1.80206,.00047L8.38435,10.04043c-2.6619,1.15467-4.38435,3.77935-4.38435,6.68089Z"/><g class="uuid-ba11bfad-21f8-4a5a-b0ed-17840cf70d7b"><path class="uuid-3d6a9405-ffbc-446a-95ba-0412baf9e019" d="M31.09779,.18946L8.36545,10.04786c-2.65038,1.1494-4.36545,3.76258-4.36545,6.65145V52.05896l27.09779,11.75157c.28757,.12587,.59488,.1888,.90221,.1888V.00066c-.30733,0-.61464,.06293-.90221,.1888Z"/></g><g class="uuid-1fc5767f-7ede-4f37-9a10-a02da01f982d"><path class="uuid-65b181eb-2e35-4a82-b9fc-5d183563b549" d="M30.30952,63.23419c.42719,.48635,1.04315,.76515,1.69048,.76515s1.26329-.2788,1.69048-.76515l12.06878-13.74009c1.12199-1.27736,1.74074-2.91939,1.74074-4.61954V6.57907L32.90221,.18946c-.57512-.25174-1.22929-.25174-1.80441,0l-14.59779,6.33241V44.87456c0,1.70015,.61875,3.34218,1.74074,4.61954l12.06878,13.74009Z"/></g></g><g id="uuid-662fc6c8-f0a1-4a1f-82a6-f30da62a9645"><path class="uuid-35129f02-e45b-4f9a-9e0c-b9b1e5c3bc01" d="M29.99116,51.98658c-.12371,0-.22765-.09298-.24139-.21592l-.50609-4.52924-4.43161-1.6129-3.29894,3.14423c-.04518,.04306-.10521,.06709-.16762,.06709-.05711,0-.11239-.02012-.15613-.05683l-3.07079-2.57675c-.09472-.07948-.11457-.21744-.0461-.3204l1.79176-2.69434c.39548-.5947,.92308-1.08994,1.54159-1.44704l2.42093-1.39775c2.13054,2.30544,5.03257,3.57462,8.1686,3.57462,3.09067,0,6.06907-1.30263,8.17152-3.57389l2.41822,1.39679c.61843,.35721,1.14597,.85249,1.54144,1.44718l1.79177,2.69434c.0685,.103,.04864,.24103-.04612,.32055l-3.07087,2.57682c-.04364,.03662-.0988,.0567-.15577,.0567-.06254,0-.12269-.02407-.16796-.06722l-3.29893-3.1441-4.43148,1.6129-.50608,4.52934c-.01373,.12288-.11762,.21582-.24127,.21582h-4.00867Zm-16.3408-13.73596c-.11763,0-.21828-.08445-.23871-.20029l-.69622-3.94791c-.02149-.12185,.05204-.24038,.17074-.27526l4.37237-1.28487,.81904-4.64445-3.66931-2.70287c-.09957-.07335-.12811-.20982-.06628-.31692l2.00443-3.47171c.04336-.0751,.12349-.12136,.21021-.12136,.03355,0,.06674,.00694,.09748,.02039l4.17517,1.82628,3.61281-3.03143-1.07356-4.42888c-.02917-.12032,.03676-.24334,.15311-.28569l3.76766-1.37118c.0263-.00957,.05408-.01447,.08207-.01447,.09219,0,.17642,.05225,.21738,.13484l1.43772,2.89917c.31744,.64012,.48261,1.34495,.48261,2.05945v2.79053c-2.42391,.54452-4.62511,1.91611-6.19751,3.85911-1.59575,1.97182-2.47463,4.45751-2.47463,6.99903,0,1.15035,.15872,2.19817,.49952,3.29719l-2.41747,1.39514c-.61844,.3569-1.31098,.56608-2.02359,.6112l-3.24505,.20496Zm36.69928,0c.11763,0,.21828-.08445,.23871-.20029l.69622-3.94791c.02149-.12185-.05204-.24038-.17074-.27526l-4.37237-1.28487-.81904-4.64445,3.66931-2.70287c.09957-.07335,.12811-.20982,.06628-.31692l-2.00443-3.47171c-.04336-.0751-.12349-.12136-.21021-.12136-.03355,0-.06674,.00694-.09748,.02039l-4.17517,1.82628-3.61281-3.03143,1.07356-4.42888c.02917-.12032-.03676-.24334-.15311-.28569l-3.76766-1.37118c-.0263-.00957-.05408-.01447-.08207-.01447-.09219,0-.17642,.05225-.21738,.13484l-1.43772,2.89917c-.31744,.64012-.48261,1.34495-.48261,2.05945v2.79053c2.42391,.54452,4.62511,1.91611,6.19751,3.85911,1.59575,1.97182,2.47463,4.45751,2.47463,6.99903,0,1.15035-.15872,2.19817-.49952,3.29719l2.41747,1.39514c.61844,.3569,1.31098,.56608,2.02359,.6112l3.24505,.20496Zm-18.34964-.26878c-2.7514,0-4.98185-2.23045-4.98185-4.98185s2.23045-4.98185,4.98185-4.98185,4.98185,2.23045,4.98185,4.98185-2.23045,4.98185-4.98185,4.98185Z"/><rect class="uuid-758b2a24-e064-43a8-a784-ce3a8a050dc3" width="64" height="64"/></g></svg>