<svg id="icons" xmlns="http://www.w3.org/2000/svg" viewBox="0 0 192 192"><title>arcgis_sdk_192</title><path d="M96 87.1a11 11 0 1 1-11 11 11 11 0 0 1 11-11zm-23.545 18.688a23.892 23.892 0 0 1-1.103-7.28A24.58 24.58 0 0 1 90.5 74.533v-6.162a10.235 10.235 0 0 0-1.066-4.547l-3.174-6.401a.536.536 0 0 0-.48-.298.53.53 0 0 0-.181.032l-8.32 3.028a.537.537 0 0 0-.337.63l2.37 9.78-7.977 6.693-9.219-4.033a.536.536 0 0 0-.68.223l-4.425 7.666a.536.536 0 0 0 .146.7l8.102 5.968-1.808 10.255-9.655 2.837a.536.536 0 0 0-.377.607l1.538 8.718a.535.535 0 0 0 .527.442l.034-.001 7.13-.452a10.233 10.233 0 0 0 4.469-1.35zm50.32 15.792a10.235 10.235 0 0 0-3.403-3.195l-5.34-3.084a24.662 24.662 0 0 1-18.042 7.89 24.306 24.306 0 0 1-18.037-7.892l-5.345 3.086a10.231 10.231 0 0 0-3.404 3.195l-3.956 5.95a.536.536 0 0 0 .102.707l6.78 5.69a.536.536 0 0 0 .715-.023l7.284-6.943 9.785 3.562 1.117 10a.536.536 0 0 0 .533.477h8.852a.536.536 0 0 0 .532-.477l1.118-10 9.785-3.562 7.284 6.943a.536.536 0 0 0 .715.023l6.78-5.69a.536.536 0 0 0 .102-.708zm15.429-20.676l-9.655-2.837-1.808-10.255 8.102-5.968a.536.536 0 0 0 .146-.7l-4.426-7.666a.536.536 0 0 0-.679-.223l-9.219 4.033-7.977-6.694 2.37-9.779a.537.537 0 0 0-.338-.63l-8.319-3.028a.53.53 0 0 0-.18-.032.536.536 0 0 0-.48.298l-3.175 6.401a10.235 10.235 0 0 0-1.066 4.547v6.162a24.58 24.58 0 0 1 19.148 23.975 23.892 23.892 0 0 1-1.103 7.28l5.338 3.08a10.233 10.233 0 0 0 4.468 1.35l7.13.452h.035a.535.535 0 0 0 .527-.441l1.538-8.717a.536.536 0 0 0-.377-.608z" fill="#fff"/></svg>