<svg xmlns="http://www.w3.org/2000/svg" width="32" height="32" viewBox="0 0 32 32" class="svg-icon">
	<path fill="#ffffff" d="M29.998 28.119L21.882 20H28v-2H18v10h2v-6.113l8.115 8.115zM20 16h3.107l1.057-.313c-.246-.963-1.199-2.119-1.199-2.119s1.107.702 1.737.518c.622-.182.156-.933.674-1.477.085-.09.327-.128.506-.126.284.955.439 1.966.439 3.014 0 .17-.014.336-.024.503h2.799c.005-.072.012-.143.012-.216 0-7.365-5.97-13.335-13.335-13.335S2.438 8.419 2.438 15.784s5.97 13.335 13.335 13.335c.077 0 .152-.007.228-.011v-1.795l-.219-1.268h-.008c-2.14 0-4.125-.645-5.787-1.741.028-.885.453-1.697 1.539-3.293.854-1.256.016-2.521-.658-2.961s-1.363-1.192-3.281-1.633c-.551-.127-1.906-.376-2.36-.882l-.001-.038c0-.818.096-1.613.272-2.377a5.025 5.025 0 0 0 1.476.008c1.011-.156.992-1.192 1.329-2.125S9.97 9.97 10.541 8.881c.383-.732-.273-1.587-.64-2.146a10.503 10.503 0 0 1 5.873-1.786c1.194 0 2.34.201 3.41.566.083.499.135 1.199.012 1.676-.137.53-1.133.788-1.415 1.251s-.617 1.747.145 2.045c.761.299 1.613-.09 2.268.333.803.518 1.425 1.633.907 1.711s-2.048-.363-3.059-.363-3.499 1.814-3.344 3.395c.05.511.135.901.254 1.201.066.248.677.811 1.049.853V16h4z"/>
</svg>