<svg xmlns="http://www.w3.org/2000/svg" viewBox="0 0 32 32"><path d="M24.442 26.944a13.856 13.856 0 0 1-2.277 1.43 3.005 3.005 0 0 0 .249-1.569 1.567 1.567 0 0 0-.032-.167 2.494 2.494 0 0 1-1.032.712 1.432 1.432 0 0 1-.411.836 2.207 2.207 0 0 0-.632.958 13.777 13.777 0 0 1-14.053-3.358l.004-.03a3.35 3.35 0 0 0-.005-.334.565.565 0 0 1 .279-.525 3.246 3.246 0 0 1 .402-.246.744.744 0 0 0 .33-.402.687.687 0 0 0-.027-.508 2.192 2.192 0 0 0-.117-.169 6.401 6.401 0 0 0-1.642-1.294l-.94-.61a2.853 2.853 0 0 1-.45-.357.483.483 0 0 1-.09-.279 2.215 2.215 0 0 1 .037-.396 2.623 2.623 0 0 0-.086-1.2 9.61 9.61 0 0 0-.577-1.37l-.097-.202c-.18-.356-.359-.716-.507-1.1a3.399 3.399 0 0 0-.308-.614c-.053-.09-.107-.17-.157-.248l-.103-.154a13.769 13.769 0 0 1 3.825-9.283 9.504 9.504 0 0 1 1.207.054c.017.002.104.004.13.004a.931.931 0 0 0 .852-.689c.172-.46.264-.505.448-.505.034 0 .07.006.112.01a2.293 2.293 0 0 1 .437.113 3.16 3.16 0 0 0 .334.081l.13.014a.65.65 0 0 0 .499-.228 21.51 21.51 0 0 0 1.11-1.516 1.756 1.756 0 0 0 .303-.848c.001-.014-.004-.03-.004-.044a13.701 13.701 0 0 1 2.923-.656c-.059.047-.24.178-.24.178a3.513 3.513 0 0 0-.566.467 1.778 1.778 0 0 0-.648 1.15.648.648 0 0 0 .31.576.685.685 0 0 0 .324.086.662.662 0 0 0 .32-.083 5.553 5.553 0 0 1 1.476-.63 1.364 1.364 0 0 1 .25-.02l.207.006c.101.002.207.01.321.022l.226.014c.086.004.157.006.23.006a1.828 1.828 0 0 0 .302-.02.772.772 0 0 0 .459-.24 3.66 3.66 0 0 0 .18-.24l.187-.294a3.057 3.057 0 0 1 .415-.545 2.57 2.57 0 0 1 .273-.23l.056-.042a13.72 13.72 0 0 1 4.181 1.521 1.124 1.124 0 0 0-.265-.04 1.792 1.792 0 0 0-1.119.662 2.614 2.614 0 0 0-.152.26l-.285.63a2.052 2.052 0 0 1-.175.288 2.323 2.323 0 0 0-.126.198.787.787 0 0 0 .19.808 6.13 6.13 0 0 0 .863.727.624.624 0 0 0 .363.114.602.602 0 0 0 .308-.083.623.623 0 0 0 .323-.594l-.012-.146a7.65 7.65 0 0 1-.02-.452.489.489 0 0 1 .13-.293.13.13 0 0 1 .08-.027.122.122 0 0 1 .09.041.608.608 0 0 0 .166.176c.03.022.24.153.24.153a.687.687 0 0 1 .32.34 1.224 1.224 0 0 1-.092 1.002c-.167.295-.229.406-.785.406a1.312 1.312 0 0 1-.585-.138l-.1-.044a.642.642 0 0 0-.25-.051.702.702 0 0 0-.394.12 2.898 2.898 0 0 0-.297.244 4.366 4.366 0 0 0-.506.528 2.726 2.726 0 0 1-.906.654.639.639 0 0 0-.337.83l.06.134a1.823 1.823 0 0 1 .12.458c.007.172-.067.19-.117.2a1.104 1.104 0 0 1-.26.033.778.778 0 0 1-.125-.008 2.474 2.474 0 0 1-.363-.071l-.145-.038a.697.697 0 0 0-.775.359 1.92 1.92 0 0 0-.112.427 6.862 6.862 0 0 0-.047.929.663.663 0 0 0 .494.677l.25.067a1.576 1.576 0 0 0 .152.046 1.818 1.818 0 0 0 .254.06l.118.003a.856.856 0 0 0 .6-.251 1.204 1.204 0 0 0 .273-.327 2.21 2.21 0 0 0 .14-.289L20 12.56a.515.515 0 0 1 .058-.095.53.53 0 0 1 .179-.152 1.15 1.15 0 0 0 .451-.41l.115-.16a1.27 1.27 0 0 1 .161-.155 1.074 1.074 0 0 1 .575-.198.663.663 0 0 1 .345.095c.087.055.213.146.362.265a.674.674 0 0 0 .402.125.643.643 0 0 0 .297-.063.713.713 0 0 0 .378-.436.239.239 0 0 1 .03.02 3.073 3.073 0 0 1 .449.338c.156.141.317.31.448.454a.874.874 0 0 1 .208.354 1.209 1.209 0 0 0 .2.511.619.619 0 0 0 .572.26.68.68 0 0 0 .55-.351c.025-.044.062-.075.053-.087a.407.407 0 0 1 .086.071.7.7 0 0 1 .12.21.654.654 0 0 0 .615.398l.179-.002a2.415 2.415 0 0 1 .266.012c.266.036.442.139.5.293a1.74 1.74 0 0 1 .186.69.357.357 0 0 1-.273.403 5.045 5.045 0 0 1-1.01.307c-.283 0-1.397-.79-1.626.16a1.299 1.299 0 0 1-.087.246c-.018.03-.039.053-.113.053a4.5 4.5 0 0 1-1.833-.84.304.304 0 0 1-.094-.195c-.004-.032-.004-.072-.005-.097l.025-.173a.734.734 0 0 0-.581-.73 3.31 3.31 0 0 0-.641-.071l-.177-.006a9.87 9.87 0 0 0-1.024.059 1.66 1.66 0 0 0-.721.255l-.105.054-.173.055-.095.002a1.622 1.622 0 0 1-.237-.119l-.148-.089a.467.467 0 0 0-.093-.05 1.258 1.258 0 0 0-.301-.144.58.58 0 0 0-.194-.03.626.626 0 0 0-.438.179 1.599 1.599 0 0 0-.18.19l-.137.154a1.558 1.558 0 0 1-.271.226 1.952 1.952 0 0 0-.863.98.67.67 0 0 1-.234.356.858.858 0 0 1-.186.097l-.277.097a3.456 3.456 0 0 0-1.509 1.545 3.201 3.201 0 0 0-.27.673 2.016 2.016 0 0 0-.044.503 1.493 1.493 0 0 1-.406 1.04.626.626 0 0 0-.207.348 1.303 1.303 0 0 0-.016.348 1.53 1.53 0 0 0 .231.675 1.369 1.369 0 0 0 .228.256l.274.257a1.497 1.497 0 0 1 .417.6 2.475 2.475 0 0 0 .753 1.226 2.153 2.153 0 0 0 1.349.594 4.99 4.99 0 0 0 .56-.058l.194-.031c.194-.028.407-.06.627-.084.039-.005.086-.004.127-.01v-.856c-.077.008-.149.013-.23.024-.187.02-.392.05-.583.077l-.274.043a3.899 3.899 0 0 1-.415.046 1.338 1.338 0 0 1-.745-.376 1.602 1.602 0 0 1-.46-.777 2.425 2.425 0 0 0-.668-1.02l-.298-.28a.54.54 0 0 1-.092-.098.612.612 0 0 1-.07-.215 2.517 2.517 0 0 0 .64-1.687 1.132 1.132 0 0 1 .02-.291 2.536 2.536 0 0 1 .203-.481 2.873 2.873 0 0 1 .954-1.067l.305-.106a1.867 1.867 0 0 0 .478-.259 1.615 1.615 0 0 0 .543-.797c.061-.157.108-.236.511-.516a2.353 2.353 0 0 0 .406-.336l.158-.176c.007.005.076.042.09.049l.085.055a2.722 2.722 0 0 0 .406.2.97.97 0 0 0 .333.059h.02c.388-.008.495-.09.4-.058l.137-.043a.963.963 0 0 0 .156-.063l.106-.055a.96.96 0 0 1 .365-.156 9.297 9.297 0 0 1 .965-.057l.148.005c.106.003.2.01.279.018 0 .013.005.163.011.215a1.26 1.26 0 0 0 .347.744 5.24 5.24 0 0 0 2.44 1.152.979.979 0 0 0 .129.009 1.072 1.072 0 0 0 .936-.512.993.993 0 0 0 .142-.154 2.003 2.003 0 0 0 .293.113 1.423 1.423 0 0 0 .48.087.933.933 0 0 0 .109-.006 2.571 2.571 0 0 0 .668-.158.965.965 0 0 0-.016.322 4 4 0 0 0 .172.73 7.8 7.8 0 0 0 .285.75 2.475 2.475 0 0 1 .601 1.348l.049.173c.076.272.156.534.234.751a3.232 3.232 0 0 0 .166.366 1.16 1.16 0 0 0 .104.179 13.783 13.783 0 0 1-1.235 2.547l.717.713c.13-.206.255-.414.376-.627.163-.287.312-.583.456-.881.087-.18.18-.356.26-.54a14.667 14.667 0 0 0 .575-1.55c.004-.013.01-.024.013-.035l-.001-.011c.124-.412.234-.83.323-1.256l.004-.005c.003-.011.004-.023.006-.035.045-.22.068-.448.104-.672.042-.269.095-.535.122-.805.016-.15.013-.304.024-.455.024-.349.053-.697.053-1.046V16c0-.036-.005-.07-.005-.107-.004-.154-.01-.308-.02-.46l-.005-.026a14.766 14.766 0 0 0-.7-3.986l-.01-.026a14.664 14.664 0 0 0-.548-1.418c-.036-.08-.077-.157-.114-.236-.182-.39-.378-.77-.593-1.14-.057-.1-.12-.197-.18-.296q-.32-.524-.679-1.018a14.46 14.46 0 0 0-.205-.274q-.395-.515-.833-.992c-.055-.06-.107-.12-.162-.179a14.776 14.776 0 0 0-25.49 9.041c-.031.375-.052.733-.053 1.075L1.22 16v.015a14.646 14.646 0 0 0 3.295 9.286c.032.04.06.082.092.121.198.239.415.464.628.691.123.13.238.267.365.393.031.03.058.065.09.096.005.006.016.005.025.008a14.78 14.78 0 0 0 14.637 3.542.114.114 0 0 0 .021.006.077.077 0 0 0 .03-.004c.344-.107.67-.25 1.002-.38.14-.054.284-.1.422-.16.324-.137.635-.295.946-.455.158-.081.316-.161.47-.248q.466-.26.908-.552c.129-.084.253-.174.379-.262.209-.148.43-.28.63-.438zM19.19 12.087l-.057.123a1.758 1.758 0 0 1-.093.2c-.008.006-.083.097-.102.117a.177.177 0 0 0-.061-.025l-.212-.059a5.387 5.387 0 0 1 .027-.544 2.736 2.736 0 0 0 .38.065 1.078 1.078 0 0 0 .177.012 2.42 2.42 0 0 0-.06.111zM4.8 23.184a9.466 9.466 0 0 1 1.258.908c-.078.048-.156.1-.234.157a1.619 1.619 0 0 0-.474.545 13.882 13.882 0 0 1-1.5-2.227zm-1.946-3.398a1.512 1.512 0 0 1 .06.605 13.682 13.682 0 0 1-.413-1.482 7.537 7.537 0 0 1 .353.877zm4.314-14.37l-.033-.003c.02-.016.037-.034.056-.05a.74.74 0 0 1-.023.053zm2.957-1.91c-.223.318-.463.65-.657.895l-.066-.02a3.111 3.111 0 0 0-.613-.15 13.803 13.803 0 0 1 1.336-.726zm7.143-1.275c-.073.103-.156.213-.21.296l-.195.31-.04.052c-.035.002-.065.002-.098.002l-.19-.005-.212-.013a4.016 4.016 0 0 0-.367-.024l-.21-.006a2.4 2.4 0 0 0-.45.037 3.807 3.807 0 0 0-.463.127c.075-.055.24-.175.288-.217a2.375 2.375 0 0 0 .323-.284 1.667 1.667 0 0 0 .264-.323c.105-.002.207-.016.312-.016.422 0 .837.027 1.248.064zm4.523 3.892a12.133 12.133 0 0 1-.084-.08 2.96 2.96 0 0 0 .138-.236 1.302 1.302 0 0 0-.054.316zm5.596 6.451a3.476 3.476 0 0 0-.4-.02 1.788 1.788 0 0 0-.18-.261 1.45 1.45 0 0 0-.38-.313.968.968 0 0 0-.989.049 2.266 2.266 0 0 0-.315-.496 7.549 7.549 0 0 0-.564-.575 4.184 4.184 0 0 0-.596-.449 1.254 1.254 0 0 0-.075-.046.969.969 0 0 0-1.229.263 3.903 3.903 0 0 0-.172-.118 1.677 1.677 0 0 0-.87-.247 1.976 1.976 0 0 0-.99.283 2.53 2.53 0 0 0-.134-.56 3.745 3.745 0 0 0 1.004-.806 3.536 3.536 0 0 1 .409-.428 2.08 2.08 0 0 1 .087-.077 2.259 2.259 0 0 0 .915.192 1.593 1.593 0 0 0 1.64-.904 2.203 2.203 0 0 0 .181-1.758 1.608 1.608 0 0 0-.726-.889l-.172-.107a1.002 1.002 0 0 0-.071-.085 1.088 1.088 0 0 0-.79-.34 1.226 1.226 0 0 0-.69.245.874.874 0 0 0-.079.071 1.382 1.382 0 0 0-.174.22l.162-.357a1.99 1.99 0 0 1 .066-.107 1.29 1.29 0 0 1 .376-.259c-.01.007.037.019.106.037l.448.131a4.021 4.021 0 0 0 1.186.248.902.902 0 0 0 .117-.025A13.804 13.804 0 0 1 29.853 16c0 .272-.025.537-.04.805a7.091 7.091 0 0 0-.696-1.158.967.967 0 0 0-.435-.299 1.435 1.435 0 0 0 .24-.816 2.73 2.73 0 0 0-.275-1.1 1.49 1.49 0 0 0-1.26-.858zm1.872 6.494l-.064-.23c-.052-.17-.102-.334-.152-.483-.152-.421-.23-.487-.243-.499a3.893 3.893 0 0 1-.47-1.055 3.276 3.276 0 0 1-.133-.544 7.543 7.543 0 0 1 1.037 2.142 2.665 2.665 0 0 0 .125.54.535.535 0 0 0 .129.17c-.03.13-.066.258-.1.387a12.409 12.409 0 0 1-.129-.428zM18.503 7.883a.659.659 0 0 1-.072-.556c.028-.067.058-.135.088-.196a.656.656 0 0 1 .463-.364l.122-.016a.626.626 0 0 1 .415.158 1.216 1.216 0 0 1 .354.535.636.636 0 0 1 .021.303.68.68 0 0 1 .46.602.875.875 0 0 1-.407.758.438.438 0 0 1-.208.046.758.758 0 0 1-.445-.16.707.707 0 0 1-.256-.646l.01-.115-.006-.002a.827.827 0 0 1-.539-.347zm6.372 7.533l-.003.01a.362.362 0 0 1 .003-.01zm6.478 14.169l-.706.709L21 20.7V25h-1v-6h6v1h-4.287z"/><path fill="none" d="M0 0h32v32H0z"/></svg>