<svg xmlns="http://www.w3.org/2000/svg" viewBox="0 0 32 32"><path d="M11 12.5v.5H6v-1h5zm19 11v-12A2.503 2.503 0 0 0 27.5 9H27a1.001 1.001 0 0 1-1-1 2.002 2.002 0 0 0-2-2h-8a2.002 2.002 0 0 0-2 2 1.001 1.001 0 0 1-1 1h-2V8H6v1H4.5A2.503 2.503 0 0 0 2 11.5v12A2.503 2.503 0 0 0 4.5 26h23a2.503 2.503 0 0 0 2.5-2.5zM7 10V9h3v1h3a2.002 2.002 0 0 0 2-2 1.001 1.001 0 0 1 1-1h8a1.001 1.001 0 0 1 1 1 2.002 2.002 0 0 0 2 2h.5a1.502 1.502 0 0 1 1.5 1.5v12a1.502 1.502 0 0 1-1.5 1.5h-23A1.502 1.502 0 0 1 3 23.5v-12A1.502 1.502 0 0 1 4.5 10zm18.8 7a5.8 5.8 0 1 0-5.8 5.8 5.806 5.806 0 0 0 5.8-5.8zm-1 0a4.8 4.8 0 1 1-4.8-4.8 4.805 4.805 0 0 1 4.8 4.8z"/><path fill="none" d="M0 0h32v32H0z"/></svg>