<svg xmlns="http://www.w3.org/2000/svg" width="32" height="32" viewBox="0 0 32 32" class="svg-icon">
	<path fill="#ffffff" d="M24 24l-8 8-8-8h6V14h4v10h6zm3.08-15.207C26.428 4.045 22.596.396 17.951.396c-3.48 0-6.504 2.045-8.082 5.062a5.15 5.15 0 0 0-1.344-.199c-2.563 0-4.471 1.909-4.646 4.326C1.707 10.7.199 12.953.199 15.557.199 19.094 3.09 22 6 22h4v-2.4H6c-1.541 0-3.4-1.803-3.4-4.043 0-1.614.91-3.084 2.375-3.837l1.199-.616.1-1.345c.09-1.236 1.016-2.1 2.252-2.1.193 0 .428.037.717.115l1.861.503.892-1.707c1.217-2.328 3.5-3.774 5.955-3.774 3.353 0 6.256 2.718 6.752 6.323l.203 1.484 1.424.468c1.836.606 3.07 2.33 3.07 4.292 0 2.347-1.859 4.235-3.4 4.235h-4v2.4h4c2.838 0 5.801-2.936 5.801-6.636 0-3.07-1.982-5.67-4.721-6.571z"/>
</svg>