<svg xmlns="http://www.w3.org/2000/svg" width="32" height="32" viewBox="0 0 32 32">
	<path fill="none" stroke-width="0" d="M0 0h32v32H0z"/>
	<path fill="#ffffff" d="M24 10H8V9h16v1zm0 3H8v1h16v-1zm0 4H8v1h16v-1zm-1 4H8v1h15v-1zm-7 4H8v1h8v-1zM27 3v16.26l-1 1V4h-1V3h2zM6 29h11.91l-.42 1H5V3h2v1H6v25zm21-3.06V30h-4.07l1-1H26v-2.07l1-.99zM11 6V2c0-.55-.45-1-1-1s-1 .45-1 1v4c0 .55.45 1 1 1s1-.45 1-1zm4 0V2c0-.55-.45-1-1-1s-1 .45-1 1v4c0 .55.45 1 1 1s1-.45 1-1zm4 0V2c0-.55-.45-1-1-1s-1 .45-1 1v4c0 .55.45 1 1 1s1-.45 1-1zm4 0V2c0-.55-.45-1-1-1s-1 .45-1 1v4c0 .55.45 1 1 1s1-.45 1-1zm-3.875 22.714l-1.343 3.157 3.15-1.35-1.807-1.807zm9.846-6.164l-1.921-1.922-6.764 6.764 1.922 1.922 6.763-6.764zm2.157-2.582l-1.497-1.497a.306.306 0 0 0-.21-.09.284.284 0 0 0-.207.083l-1.027 1.028 1.921 1.921 1.027-1.028a.295.295 0 0 0-.007-.417z" stroke-width="0"/>
</svg>