<svg xmlns="http://www.w3.org/2000/svg" viewBox="0 0 32 32"><path d="M21.088 2.112a8.79 8.79 0 0 0-8.054 12.332L2 25.48V30h4.52L9 27.521V26h1.521L13 23.521V22h1.521l3.035-3.034a8.798 8.798 0 1 0 3.532-16.854zm0 16.6a7.75 7.75 0 0 1-3.736-.956L14.107 21H13a1 1 0 0 0-1 1v1.107L10.107 25H9a1 1 0 0 0-1 1v1.107L6.106 29H3v-3.106l11.244-11.245a7.798 7.798 0 1 1 6.844 4.063zm-5.734-1.358l-10 10-.707-.707 10-10zM23 6a3 3 0 1 0 3 3 3 3 0 0 0-3-3zm0 5a2 2 0 1 1 2-2 2.002 2.002 0 0 1-2 2z"/><path fill="none" d="M0 0h32v32H0z"/></svg>