<svg xmlns="http://www.w3.org/2000/svg" width="32" height="32" viewBox="0 0 32 32" class="svg-icon">
	<path fill="#000000" d="M28.199 14.818l3.385-2.318-.883-2.717-4.1.113-1.445-1.986 1.375-3.865-2.31-1.678-3.25 2.5-2.336-.758-1.16-3.934H14.62l-1.16 3.934-2.336.758-3.25-2.5-2.31 1.678L6.939 7.91 5.494 9.896l-4.1-.113L.511 12.5l3.383 2.318v2.457L.511 19.593l.883 2.717 4.1-.113 1.445 1.986-1.375 3.865 2.31 1.678 3.25-2.5 2.336.758 1.16 3.934h2.855l1.16-3.934 2.336-.758 3.25 2.5 2.31-1.678-1.375-3.865 1.445-1.986 4.1.113.883-2.717-3.385-2.318v-2.457zm-12.152 7.03a5.802 5.802 0 0 1 0-11.602 5.802 5.802 0 0 1 0 11.602z"/>
</svg>