<svg xmlns="http://www.w3.org/2000/svg" viewBox="0 0 32 32"><path d="M26.204 19.397L30 17.99l-.015-4.082-3.814-1.382a10.757 10.757 0 0 0-.556-1.336l1.692-3.682-2.897-2.876-3.674 1.72a10.685 10.685 0 0 0-1.34-.556L17.99 2l-4.082.015-1.382 3.814a10.77 10.77 0 0 0-1.336.556L7.508 4.693 4.632 7.59l1.72 3.674a10.661 10.661 0 0 0-.556 1.34L2 14.01l.015 4.082 3.814 1.382a10.767 10.767 0 0 0 .556 1.336l-1.692 3.682 2.897 2.876 3.674-1.72a10.678 10.678 0 0 0 1.34.556L14.01 30l4.082-.015 1.382-3.814a10.79 10.79 0 0 0 1.336-.556l3.682 1.692 2.876-2.897-1.72-3.674a10.678 10.678 0 0 0 .556-1.34zm-.038 4.804l-1.892 1.905-3.482-1.6-.43.215a9.726 9.726 0 0 1-1.213.505l-.453.155-1.306 3.607-2.685.01-1.331-3.592-.455-.152a9.726 9.726 0 0 1-1.216-.504l-.43-.21L7.8 26.167l-1.906-1.892 1.6-3.483-.215-.43a9.76 9.76 0 0 1-.504-1.211l-.154-.454-3.61-1.307-.008-2.685 3.59-1.33.152-.457a9.766 9.766 0 0 1 .505-1.214l.21-.43-1.626-3.475 1.892-1.905 3.482 1.6.43-.215a9.726 9.726 0 0 1 1.213-.505l.453-.155 1.306-3.607 2.685-.01 1.331 3.592.455.152a9.726 9.726 0 0 1 1.216.504l.43.21L24.2 5.833l1.906 1.892-1.6 3.483.215.43a9.668 9.668 0 0 1 .504 1.211l.154.454 3.61 1.307.008 2.685-3.59 1.33-.152.457a9.735 9.735 0 0 1-.505 1.214l-.21.43zM16 10.2a5.8 5.8 0 1 0 5.8 5.8 5.8 5.8 0 0 0-5.8-5.8zm0 10.6a4.8 4.8 0 1 1 4.8-4.8 4.805 4.805 0 0 1-4.8 4.8z"/><path fill="none" d="M0 0h32v32H0z"/></svg>