<svg xmlns="http://www.w3.org/2000/svg" viewBox="0 0 32 32"><path d="M30.833 11.943l-10.249-.863-4.032-9.63a.618.618 0 0 0-1.154 0l-4.032 9.63-10.249.863a.63.63 0 0 0-.577.418.63.63 0 0 0 .22.68l7.787 6.745-2.35 10.054a.63.63 0 0 0 .222.679.573.573 0 0 0 .339.108.717.717 0 0 0 .374-.111l8.843-5.376 8.842 5.375a.606.606 0 0 0 .936-.677l-2.35-10.052 7.787-6.745.001-.001a.607.607 0 0 0-.358-1.097zm-8.541 7.483l2.284 9.772-8.601-5.228-8.602 5.229 2.285-9.773-7.574-6.561 9.97-.84 3.92-9.364 3.922 9.364 9.97.84z"/><path fill="none" d="M0 0h32v32H0z"/></svg>