<svg xmlns="http://www.w3.org/2000/svg" viewBox="0 0 32 32"><path d="M25.835 7h1.003l-1.724 21.62A1.506 1.506 0 0 1 23.62 30H8.381a1.506 1.506 0 0 1-1.495-1.38L5.162 7h1.003l1.717 21.54a.503.503 0 0 0 .499.46h15.238a.503.503 0 0 0 .5-.46zM19.5 25a.501.501 0 0 0 .5-.5v-14a.5.5 0 0 0-1 0v14a.501.501 0 0 0 .5.5zm-7 0a.501.501 0 0 0 .5-.5v-14a.5.5 0 0 0-1 0v14a.501.501 0 0 0 .5.5zM29 5v1H3V5h8V3.5A1.502 1.502 0 0 1 12.5 2h7A1.502 1.502 0 0 1 21 3.5V5zm-9 0V3.5a.5.5 0 0 0-.5-.5h-7a.5.5 0 0 0-.5.5V5z"/><path fill="none" d="M0 0h32v32H0z"/></svg>